<svg width="20" height="21" viewBox="0 0 20 21" fill="none" xmlns="http://www.w3.org/2000/svg">
<g clip-path="url(#clip0_2_381)">
<path d="M20 10.3975C20 4.87467 15.5229 0.397522 10 0.397522C4.47715 0.397522 0 4.87467 0 10.3975C0 15.3887 3.65684 19.5258 8.4375 20.276V13.2881H5.89844V10.3975H8.4375V8.1944C8.4375 5.68815 9.93047 4.30377 12.2146 4.30377C13.3084 4.30377 14.4531 4.49908 14.4531 4.49908V6.96002H13.1922C11.95 6.96002 11.5625 7.73092 11.5625 8.52252V10.3975H14.3359L13.8926 13.2881H11.5625V20.276C16.3432 19.5258 20 15.3887 20 10.3975Z" fill="#20001C"/>
</g>
<defs>
<clipPath id="clip0_2_381">
<rect width="20" height="20" fill="white" transform="translate(0 0.397522)"/>
</clipPath>
</defs>
</svg>
