<svg width="20" height="21" viewBox="0 0 20 21" fill="none" xmlns="http://www.w3.org/2000/svg">
<g clip-path="url(#clip0_2_390)">
<path d="M10 2.1983C12.6719 2.1983 12.9883 2.21002 14.0391 2.2569C15.0156 2.29987 15.543 2.46393 15.8945 2.60065C16.3594 2.78033 16.6953 2.99908 17.043 3.34674C17.3945 3.6983 17.6094 4.03033 17.7891 4.49518C17.9258 4.84674 18.0898 5.37799 18.1328 6.35065C18.1797 7.40533 18.1914 7.72174 18.1914 10.3897C18.1914 13.0616 18.1797 13.378 18.1328 14.4288C18.0898 15.4053 17.9258 15.9327 17.7891 16.2842C17.6094 16.7491 17.3906 17.085 17.043 17.4327C16.6914 17.7842 16.3594 17.9991 15.8945 18.1788C15.543 18.3155 15.0117 18.4796 14.0391 18.5225C12.9844 18.5694 12.668 18.5811 10 18.5811C7.32813 18.5811 7.01172 18.5694 5.96094 18.5225C4.98438 18.4796 4.45703 18.3155 4.10547 18.1788C3.64063 17.9991 3.30469 17.7803 2.95703 17.4327C2.60547 17.0811 2.39063 16.7491 2.21094 16.2842C2.07422 15.9327 1.91016 15.4014 1.86719 14.4288C1.82031 13.3741 1.80859 13.0577 1.80859 10.3897C1.80859 7.71783 1.82031 7.40143 1.86719 6.35065C1.91016 5.37408 2.07422 4.84674 2.21094 4.49518C2.39063 4.03033 2.60938 3.6944 2.95703 3.34674C3.30859 2.99518 3.64063 2.78033 4.10547 2.60065C4.45703 2.46393 4.98828 2.29987 5.96094 2.2569C7.01172 2.21002 7.32813 2.1983 10 2.1983ZM10 0.397522C7.28516 0.397522 6.94531 0.409241 5.87891 0.456116C4.81641 0.502991 4.08594 0.674866 3.45313 0.920959C2.79297 1.17877 2.23438 1.51862 1.67969 2.07721C1.12109 2.6319 0.78125 3.19049 0.523438 3.84674C0.277344 4.48346 0.105469 5.21002 0.0585938 6.27252C0.0117188 7.34283 0 7.68268 0 10.3975C0 13.1124 0.0117188 13.4522 0.0585938 14.5186C0.105469 15.5811 0.277344 16.3116 0.523438 16.9444C0.78125 17.6046 1.12109 18.1631 1.67969 18.7178C2.23438 19.2725 2.79297 19.6163 3.44922 19.8702C4.08594 20.1163 4.8125 20.2881 5.875 20.335C6.94141 20.3819 7.28125 20.3936 9.99609 20.3936C12.7109 20.3936 13.0508 20.3819 14.1172 20.335C15.1797 20.2881 15.9102 20.1163 16.543 19.8702C17.1992 19.6163 17.7578 19.2725 18.3125 18.7178C18.8672 18.1631 19.2109 17.6046 19.4648 16.9483C19.7109 16.3116 19.8828 15.585 19.9297 14.5225C19.9766 13.4561 19.9883 13.1163 19.9883 10.4014C19.9883 7.68659 19.9766 7.34674 19.9297 6.28033C19.8828 5.21783 19.7109 4.48737 19.4648 3.85455C19.2188 3.19049 18.8789 2.6319 18.3203 2.07721C17.7656 1.52252 17.207 1.17877 16.5508 0.924866C15.9141 0.678772 15.1875 0.506897 14.125 0.460022C13.0547 0.409241 12.7148 0.397522 10 0.397522Z" fill="#20001C"/>
<path d="M10 5.2608C7.16406 5.2608 4.86328 7.56158 4.86328 10.3975C4.86328 13.2335 7.16406 15.5342 10 15.5342C12.8359 15.5342 15.1367 13.2335 15.1367 10.3975C15.1367 7.56158 12.8359 5.2608 10 5.2608ZM10 13.7296C8.16016 13.7296 6.66797 12.2374 6.66797 10.3975C6.66797 8.55768 8.16016 7.06549 10 7.06549C11.8398 7.06549 13.332 8.55768 13.332 10.3975C13.332 12.2374 11.8398 13.7296 10 13.7296Z" fill="#20001C"/>
<path d="M16.5391 5.05765C16.5391 5.72171 16 6.25687 15.3398 6.25687C14.6758 6.25687 14.1406 5.71781 14.1406 5.05765C14.1406 4.39359 14.6797 3.85843 15.3398 3.85843C16 3.85843 16.5391 4.39749 16.5391 5.05765Z" fill="#20001C"/>
</g>
<defs>
<clipPath id="clip0_2_390">
<rect width="20" height="20" fill="white" transform="translate(0 0.397522)"/>
</clipPath>
</defs>
</svg>
