<svg width="148" height="53" viewBox="0 0 148 53" fill="none" xmlns="http://www.w3.org/2000/svg">
<g clip-path="url(#clip0_5_4917)">
<path d="M65.249 30.8608H63.4175C61.9171 30.8608 60.9666 31.7626 60.9666 33.2408V39.9789C60.9666 41.4673 61.9171 42.3589 63.4175 42.3589H65.249C66.7493 42.3589 67.6998 41.469 67.6998 39.9789V33.2408C67.6998 31.7626 66.7493 30.8608 65.249 30.8608ZM65.6961 39.6993C65.6961 40.1332 65.4792 40.379 65.0205 40.379H63.6576C63.1989 40.379 62.9704 40.1332 62.9704 39.6993V33.534C62.9704 33.0882 63.1989 32.8424 63.6576 32.8424H65.0205C65.4792 32.8424 65.6961 33.0882 65.6961 33.534V39.6993Z" fill="#20001C"/>
<path d="M73.1729 30.8608H71.9242C70.4239 30.8608 69.4734 31.7626 69.4734 33.2408V39.979C69.4734 41.4673 70.4239 42.3589 71.9242 42.3589H73.1729C74.6732 42.3589 75.6237 41.469 75.6237 39.979V38.3143H73.7458V39.6976C73.7458 40.1315 73.5272 40.3773 73.0818 40.3773H72.1544C71.7073 40.3773 71.4788 40.1315 71.4788 39.6976V33.5324C71.4788 33.0865 71.7073 32.8407 72.1544 32.8407H73.0818C73.5289 32.8407 73.7458 33.0865 73.7458 33.5324V34.9037H75.6237V33.2391C75.6237 31.7609 74.6732 30.8591 73.1729 30.8591V30.8608Z" fill="#20001C"/>
<path d="M82.0472 30.8608L79.3563 35.9835V30.8608H77.3525V42.3589H79.3563V37.3667L81.9214 42.3589H84.1884L81.1199 36.5683L84.258 30.8608H82.0472Z" fill="#20001C"/>
<path d="M57.0916 35.514H54.5845V30.8608H52.5807V42.3589H54.5845V37.4956H57.0916V42.3589H59.0953V30.8608H57.0916V35.514Z" fill="#20001C"/>
<path d="M113.65 11.4159H110.901V27.2044H113.65V11.4159Z" fill="#20001C"/>
<path d="M130.538 17.6048L135.039 27.2044H137.236V11.4159H134.626V20.629L130.365 11.4159H127.928V27.2044H130.538V17.6048Z" fill="#20001C"/>
<path d="M66.0339 20.5239H69.4816V27.2044H72.2289V11.4159H69.4816V17.8269H66.0339V11.4159H63.2866V27.2044H66.0339V20.5239Z" fill="#20001C"/>
<path d="M61.0246 21.6478H58.4479V23.5463C58.4479 24.1447 58.1382 24.4956 57.5205 24.4956H56.2487C55.631 24.4956 55.3214 24.1447 55.3214 23.5463V15.0706C55.3214 14.4739 55.631 14.1213 56.2487 14.1213H57.5205C58.1382 14.1213 58.4479 14.4739 58.4479 15.0706V16.9692H61.0246V14.6841C61.0246 12.6449 59.7197 11.4142 57.658 11.4142H55.9407C53.879 11.4142 52.5741 12.6466 52.5741 14.6841V23.9311C52.5741 25.9703 53.8807 27.201 55.9407 27.201H57.658C59.718 27.201 61.0246 25.9703 61.0246 23.9311V21.6444V21.6478Z" fill="#20001C"/>
<path d="M77.6158 11.3803L73.8021 27.2027H76.5842L77.3741 23.6175H80.946L81.7359 27.2027H84.5528L80.8069 11.3803H77.6125H77.6158ZM77.947 21.0155L79.1609 15.53L80.3747 21.0155H77.947Z" fill="#20001C"/>
<path d="M106.023 30.8608H104.019V42.3589H109.298V40.379H106.023V30.8608Z" fill="#20001C"/>
<path d="M144.633 11.4159H142.916C140.854 11.4159 139.55 12.6483 139.55 14.6858V17.2878C139.55 18.5524 140.169 19.5153 141.439 19.8543L144.289 20.6273C145.011 20.8256 145.216 21.0849 145.216 21.8579V23.5463C145.216 24.1447 144.907 24.4956 144.289 24.4956H142.951C142.332 24.4956 142.024 24.1447 142.024 23.5463V21.8935H139.447V23.9328C139.447 25.972 140.752 27.2027 142.813 27.2027H144.531C146.592 27.2027 147.897 25.972 147.897 23.9328V20.9799C147.897 19.7136 147.278 18.7524 146.008 18.4134L143.156 17.6387C142.434 17.4387 142.229 17.1811 142.229 16.4081V15.0706C142.229 14.4739 142.537 14.1213 143.156 14.1213H144.496C145.115 14.1213 145.423 14.4739 145.423 15.0706V16.5488H148V14.6858C148 12.6466 146.695 11.4159 144.633 11.4159Z" fill="#20001C"/>
<path d="M129.885 30.8608H128.408C126.908 30.8608 125.957 31.7626 125.957 33.2408V39.979C125.957 41.4673 126.908 42.3589 128.408 42.3589H129.885C131.386 42.3589 132.336 41.469 132.336 39.979V36.4039H129.405V38.2431H130.458V39.6976C130.458 40.1315 130.24 40.3773 129.794 40.3773H128.638C128.191 40.3773 127.963 40.1315 127.963 39.6976V33.5324C127.963 33.0865 128.191 32.8407 128.638 32.8407H129.794C130.241 32.8407 130.458 33.0865 130.458 33.5324V34.7868H132.336V33.2391C132.336 31.7609 131.386 30.8591 129.885 30.8591V30.8608Z" fill="#20001C"/>
<path d="M85.288 42.3589H90.6004V40.379H87.2918V37.4125H90.246V35.4784H87.2918V32.8424H90.6004V30.8608H85.288V42.3589Z" fill="#20001C"/>
<path d="M122.042 11.4159H119.535C117.474 11.4159 116.169 12.6483 116.169 14.6858V23.9328C116.169 25.972 117.474 27.2027 119.535 27.2027H122.042C124.103 27.2027 125.409 25.972 125.409 23.9328V14.6858C125.409 12.6466 124.103 11.4159 122.042 11.4159ZM122.66 23.548C122.66 24.1464 122.352 24.4973 121.733 24.4973H119.845C119.226 24.4973 118.918 24.1464 118.918 23.548V15.0723C118.918 14.4756 119.227 14.123 119.845 14.123H121.733C122.352 14.123 122.66 14.4756 122.66 15.0723V23.548Z" fill="#20001C"/>
<path d="M142.595 42.3589H147.907V40.379H144.599V37.4125H147.553V35.4682H144.599V32.8424H147.907V30.8608H142.595V42.3589Z" fill="#20001C"/>
<path d="M94.7221 18.6948V27.2044H97.2988V11.3803H95.3067L91.7331 19.3271L88.1264 11.3803H86.1342V27.2044H88.7109V18.6948L91.0806 23.8633H92.3524L94.7221 18.6948Z" fill="#20001C"/>
<path d="M119.936 30.8371L117.166 42.3589H119.193L119.766 39.7806H122.375L122.948 42.3589H124.987L122.274 30.8371H119.938H119.936ZM120.188 37.8584L121.07 33.8612L121.951 37.8584H120.188Z" fill="#20001C"/>
<path d="M95.2719 35.7377L93.7948 30.8608H91.6188L94.2651 38.2686V42.3589H96.2688V38.2686L98.9366 30.8608H96.7374L95.2719 35.7377Z" fill="#20001C"/>
<path d="M138.725 39.6993C138.725 40.1332 138.506 40.379 138.049 40.379H136.789C136.33 40.379 136.102 40.1332 136.102 39.6993V30.8625H134.098V39.9807C134.098 41.469 135.049 42.3606 136.549 42.3606H138.278C139.778 42.3606 140.727 41.4707 140.727 39.9807V30.8625H138.723V39.6993H138.725Z" fill="#20001C"/>
<path d="M110.673 42.3589H115.985V40.379H112.676V37.4125H115.631V35.4784H112.676V32.8424H115.985V30.8608H110.673V42.3589Z" fill="#20001C"/>
<path d="M108.634 19.1169V14.6858C108.634 12.6466 107.329 11.4159 105.267 11.4159H99.9766V27.2044H102.724V22.3868H105.266C107.326 22.3868 108.632 21.1561 108.632 19.1169H108.634ZM102.725 19.6797V14.123H104.959C105.579 14.123 105.887 14.4756 105.887 15.0723V18.7304C105.887 19.3288 105.579 19.6797 104.959 19.6797H102.725Z" fill="#20001C"/>
<path d="M0 13.3585V39.4568L22.0626 52.3958L44.1236 39.4568V13.3585L22.0626 0.397522L0 13.3585Z" fill="#20001C"/>
<path d="M14.1437 22.8716H10.7523V17.6879C10.7523 17.0946 10.5171 16.7437 10.1081 16.7437C9.93588 16.7437 9.55004 16.7878 8.7353 17.2709C7.70528 17.8863 7.47013 18.0846 7.47013 20.1052V32.6712C7.47013 34.6918 7.70693 34.8902 8.7353 35.5055C9.5517 35.9886 9.93754 36.0327 10.1081 36.0327C10.5171 36.0327 10.7523 35.6801 10.7523 35.0885V29.4861H14.1437V35.2851C14.1437 38.2957 12.8355 40.118 10.6662 40.118C9.95741 40.118 9.09961 39.8993 7.27472 38.7991C4.87189 37.3498 4.18466 36.47 4.18466 32.7577V20.0374C4.18466 16.303 4.87189 15.4232 7.27472 13.9959C9.09961 12.8975 9.95741 12.6551 10.6662 12.6551C12.8339 12.6551 14.1437 14.5011 14.1437 17.4879V22.87V22.8716Z" fill="white"/>
<path d="M30.7317 11.0532L34.1231 12.9653V35.7682L35.8404 34.802C36.978 34.1646 37.1287 33.9002 37.1287 31.9237V28.035H40.391V31.9237C40.391 35.6157 39.6839 36.5819 37.301 37.9872L30.7333 41.7656V11.0532H30.7317Z" fill="white"/>
<path d="M24.1442 7.36115L27.5986 9.2953V43.4777L24.1442 45.4339V28.035H19.9165V45.4339L16.5035 43.4777V9.2953L19.9165 7.36115V24.321H24.1442V7.36115Z" fill="white"/>
</g>
<defs>
<clipPath id="clip0_5_4917">
<rect width="148" height="52" fill="white" transform="translate(0 0.397522)"/>
</clipPath>
</defs>
</svg>
