<svg width="36" height="37" viewBox="0 0 36 37" fill="none" xmlns="http://www.w3.org/2000/svg">
<path d="M30.435 21.9075L22.695 23.3865" stroke="white" stroke-width="1.5" stroke-linecap="round" stroke-linejoin="round"/>
<path d="M21.624 13.1145L16.422 14.8335C16.0195 14.966 15.5823 14.9459 15.1936 14.7769C14.805 14.6078 14.4921 14.3018 14.3145 13.917C14.1231 13.5063 14.0989 13.0372 14.247 12.609C14.395 12.1807 14.7038 11.8268 15.108 11.622L20.1465 9.08851C20.576 8.87193 21.0453 8.74581 21.5255 8.71794C22.0056 8.69007 22.4864 8.76106 22.938 8.92651L30.3975 11.655" stroke="white" stroke-width="1.5" stroke-linecap="round" stroke-linejoin="round"/>
<path d="M5.5275 21.9194H9.195L14.463 27.8234C14.7313 28.1343 15.0882 28.3557 15.4859 28.4579C15.8836 28.5601 16.3031 28.5383 16.688 28.3953C17.0729 28.2523 17.4049 27.995 17.6394 27.6579C17.874 27.3208 17.9998 26.9201 18 26.5094V25.5869L18.2625 25.6919C18.6393 25.8426 19.0474 25.8987 19.4509 25.8553C19.8544 25.8119 20.2411 25.6702 20.5773 25.4427C20.9134 25.2152 21.1886 24.9089 21.379 24.5504C21.5693 24.1919 21.6689 23.7923 21.669 23.3864H22.4025C22.8112 23.3861 23.2117 23.2721 23.5593 23.0572C23.9069 22.8422 24.1878 22.5347 24.3705 22.1692C24.5533 21.8036 24.6307 21.3945 24.5942 20.9874C24.5576 20.5804 24.4085 20.1915 24.1635 19.8644L19.455 13.8314" stroke="white" stroke-width="1.5" stroke-linecap="round" stroke-linejoin="round"/>
<path d="M15.8745 11.235L15.3375 10.7925C14.7964 10.394 14.142 10.179 13.47 10.179C13.0696 10.1788 12.6729 10.2557 12.3015 10.4055L5.625 13.0755" stroke="white" stroke-width="1.5" stroke-linecap="round" stroke-linejoin="round"/>
<path d="M1.125 10.5225H4.125C4.5059 10.5066 4.87758 10.6423 5.1587 10.8998C5.43981 11.1573 5.60748 11.5157 5.625 11.8965V21.522C5.60747 21.9029 5.43986 22.2615 5.15879 22.5192C4.87772 22.777 4.50604 22.913 4.125 22.8975H1.125" stroke="white" stroke-width="1.5" stroke-linecap="round" stroke-linejoin="round"/>
<path d="M34.875 22.8975H31.875C31.494 22.913 31.1223 22.777 30.8412 22.5192C30.5601 22.2615 30.3925 21.9029 30.375 21.522V11.8965C30.3925 11.5157 30.5602 11.1573 30.8413 10.8998C31.1224 10.6423 31.4941 10.5066 31.875 10.5225H34.875" stroke="white" stroke-width="1.5" stroke-linecap="round" stroke-linejoin="round"/>
<path d="M18 25.587L16.533 24.12" stroke="white" stroke-width="1.5" stroke-linecap="round" stroke-linejoin="round"/>
<path d="M21.669 23.3864L19.467 21.1844" stroke="white" stroke-width="1.5" stroke-linecap="round" stroke-linejoin="round"/>
</svg>
