<svg width="36" height="37" viewBox="0 0 36 37" fill="none" xmlns="http://www.w3.org/2000/svg">
<g clip-path="url(#clip0_2_3551)">
<path d="M17.25 11.6475C20.0459 11.6475 22.3125 9.3809 22.3125 6.58496C22.3125 3.78902 20.0459 1.52246 17.25 1.52246C14.4541 1.52246 12.1875 3.78902 12.1875 6.58496C12.1875 9.3809 14.4541 11.6475 17.25 11.6475Z" stroke="white" stroke-width="1.5" stroke-linecap="round" stroke-linejoin="round"/>
<path d="M23.3295 16.1475C21.6654 14.636 19.498 13.7986 17.25 13.7986C15.0019 13.7986 12.8345 14.636 11.1705 16.1475" stroke="white" stroke-width="1.5" stroke-linecap="round" stroke-linejoin="round"/>
<path d="M22.3125 6.75145C21.3983 7.0149 20.4515 7.14821 19.5 7.14745C16.9612 7.15123 14.5143 6.19723 12.648 4.47595" stroke="white" stroke-width="1.5" stroke-linecap="round" stroke-linejoin="round"/>
<path d="M27.75 29.6475C30.5459 29.6475 32.8125 27.3809 32.8125 24.585C32.8125 21.789 30.5459 19.5225 27.75 19.5225C24.9541 19.5225 22.6875 21.789 22.6875 24.585C22.6875 27.3809 24.9541 29.6475 27.75 29.6475Z" stroke="white" stroke-width="1.5" stroke-linecap="round" stroke-linejoin="round"/>
<path d="M34.875 35.2725C34.0297 34.1896 32.9486 33.3137 31.714 32.7112C30.4794 32.1088 29.1237 31.7957 27.75 31.7957C26.3763 31.7957 25.0206 32.1088 23.786 32.7112C22.5514 33.3137 21.4703 34.1896 20.625 35.2725" stroke="white" stroke-width="1.5" stroke-linecap="round" stroke-linejoin="round"/>
<path d="M32.8125 24.7515C31.1417 25.2326 29.3752 25.276 27.6827 24.8775C25.9902 24.479 24.4287 23.652 23.148 22.476" stroke="white" stroke-width="1.5" stroke-linecap="round" stroke-linejoin="round"/>
<path d="M8.25 29.6475C11.0459 29.6475 13.3125 27.3809 13.3125 24.585C13.3125 21.789 11.0459 19.5225 8.25 19.5225C5.45406 19.5225 3.1875 21.789 3.1875 24.585C3.1875 27.3809 5.45406 29.6475 8.25 29.6475Z" stroke="white" stroke-width="1.5" stroke-linecap="round" stroke-linejoin="round"/>
<path d="M15.3735 35.2725C14.5281 34.1896 13.4471 33.3137 12.2125 32.7112C10.9779 32.1088 9.62222 31.7957 8.24847 31.7957C6.87473 31.7957 5.51905 32.1088 4.28445 32.7112C3.04985 33.3137 1.96882 34.1896 1.12347 35.2725" stroke="white" stroke-width="1.5" stroke-linecap="round" stroke-linejoin="round"/>
<path d="M13.3125 24.7515C11.6417 25.2326 9.87516 25.276 8.1827 24.8775C6.49023 24.479 4.92867 23.652 3.64801 22.476" stroke="white" stroke-width="1.5" stroke-linecap="round" stroke-linejoin="round"/>
</g>
<defs>
<clipPath id="clip0_2_3551">
<rect width="36" height="36" fill="white" transform="translate(0 0.397461)"/>
</clipPath>
</defs>
</svg>
