<svg width="36" height="37" viewBox="0 0 36 37" fill="none" xmlns="http://www.w3.org/2000/svg">
<g clip-path="url(#clip0_2_3573)">
<path d="M18 35.2725C27.3198 35.2725 34.875 27.7173 34.875 18.3975C34.875 9.07766 27.3198 1.52246 18 1.52246C8.68019 1.52246 1.125 9.07766 1.125 18.3975C1.125 27.7173 8.68019 35.2725 18 35.2725Z" stroke="white" stroke-width="1.5" stroke-linecap="round" stroke-linejoin="round"/>
<path d="M13.9335 34.779C11.6505 31.431 10.125 25.347 10.125 18.3975C10.125 11.448 11.6505 5.36399 13.9335 2.01599" stroke="white" stroke-width="1.5" stroke-linecap="round" stroke-linejoin="round"/>
<path d="M1.125 18.3975H34.875" stroke="white" stroke-width="1.5" stroke-linecap="round" stroke-linejoin="round"/>
<path d="M3.72302 27.3975H32.277" stroke="white" stroke-width="1.5" stroke-linecap="round" stroke-linejoin="round"/>
<path d="M3.72302 9.39746H32.277" stroke="white" stroke-width="1.5" stroke-linecap="round" stroke-linejoin="round"/>
<path d="M22.0665 2.01599C24.3495 5.36399 25.875 11.448 25.875 18.3975C25.875 25.347 24.3495 31.431 22.0665 34.779" stroke="white" stroke-width="1.5" stroke-linecap="round" stroke-linejoin="round"/>
</g>
<defs>
<clipPath id="clip0_2_3573">
<rect width="36" height="36" fill="white" transform="translate(0 0.397461)"/>
</clipPath>
</defs>
</svg>
