<svg width="36" height="37" viewBox="0 0 36 37" fill="none" xmlns="http://www.w3.org/2000/svg">
<g clip-path="url(#clip0_2_3536)">
<path d="M11.25 21.7725H6.75V30.7725H11.25V21.7725Z" stroke="white" stroke-width="1.5" stroke-linecap="round" stroke-linejoin="round"/>
<path d="M20.25 21.7725H15.75V30.7725H20.25V21.7725Z" stroke="white" stroke-width="1.5" stroke-linecap="round" stroke-linejoin="round"/>
<path d="M29.25 21.7725H24.75V30.7725H29.25V21.7725Z" stroke="white" stroke-width="1.5" stroke-linecap="round" stroke-linejoin="round"/>
<path d="M31.5 20.6475C31.5 20.9459 31.3815 21.232 31.1705 21.443C30.9595 21.654 30.6734 21.7725 30.375 21.7725H5.625C5.32663 21.7725 5.04048 21.654 4.8295 21.443C4.61853 21.232 4.5 20.9459 4.5 20.6475C4.49998 20.3198 4.60313 20.0005 4.79483 19.7347C4.98654 19.469 5.25705 19.2704 5.568 19.167L17.6445 15.141C17.8753 15.0645 18.1247 15.0645 18.3555 15.141L30.432 19.167C30.743 19.2704 31.0135 19.469 31.2052 19.7347C31.3969 20.0005 31.5 20.3198 31.5 20.6475Z" stroke="white" stroke-width="1.5" stroke-linecap="round" stroke-linejoin="round"/>
<path d="M22.5 12.7725H27V18.0225" stroke="white" stroke-width="1.5" stroke-linecap="round" stroke-linejoin="round"/>
<path d="M9 18.0225V12.7725H13.5" stroke="white" stroke-width="1.5" stroke-linecap="round" stroke-linejoin="round"/>
<path d="M9 12.7725C9 10.3855 9.94821 8.09633 11.636 6.4085C13.3239 4.72067 15.6131 3.77246 18 3.77246C20.3869 3.77246 22.6761 4.72067 24.364 6.4085C26.0518 8.09633 27 10.3855 27 12.7725" stroke="white" stroke-width="1.5" stroke-linecap="round" stroke-linejoin="round"/>
<path d="M18 1.52246V3.77246" stroke="white" stroke-width="1.5" stroke-linecap="round" stroke-linejoin="round"/>
<path d="M2.25 35.2725H33.75" stroke="white" stroke-width="1.5" stroke-linecap="round" stroke-linejoin="round"/>
<path d="M4.5 30.7725H31.5" stroke="white" stroke-width="1.5" stroke-linecap="round" stroke-linejoin="round"/>
</g>
<defs>
<clipPath id="clip0_2_3536">
<rect width="36" height="36" fill="white" transform="translate(0 0.397461)"/>
</clipPath>
</defs>
</svg>
