<svg width="36" height="37" viewBox="0 0 36 37" fill="none" xmlns="http://www.w3.org/2000/svg">
<path d="M23.625 18.3975H3.375C2.13236 18.3975 1.125 19.4048 1.125 20.6475V31.8975C1.125 33.1401 2.13236 34.1475 3.375 34.1475H23.625C24.8676 34.1475 25.875 33.1401 25.875 31.8975V20.6475C25.875 19.4048 24.8676 18.3975 23.625 18.3975Z" stroke="white" stroke-width="1.5" stroke-linecap="round" stroke-linejoin="round"/>
<path d="M25.875 30.1455L33.3555 32.9505C33.5256 33.0142 33.7087 33.0357 33.889 33.0133C34.0693 32.9908 34.2415 32.9251 34.3908 32.8216C34.5401 32.7181 34.6622 32.58 34.7465 32.419C34.8308 32.2581 34.8749 32.0792 34.875 31.8975V21.6435C34.8748 21.4619 34.8306 21.2831 34.7461 21.1224C34.6617 20.9617 34.5396 20.8238 34.3902 20.7206C34.2408 20.6174 34.0687 20.5519 33.8885 20.5297C33.7083 20.5076 33.5254 20.5295 33.3555 20.5935L25.875 23.3985V30.1455Z" stroke="white" stroke-width="1.5" stroke-linecap="round" stroke-linejoin="round"/>
<path d="M6.75 22.8975H19.125" stroke="white" stroke-width="1.5" stroke-linecap="round" stroke-linejoin="round"/>
<path d="M6.75 13.8975C9.8566 13.8975 12.375 11.3791 12.375 8.27246C12.375 5.16586 9.8566 2.64746 6.75 2.64746C3.6434 2.64746 1.125 5.16586 1.125 8.27246C1.125 11.3791 3.6434 13.8975 6.75 13.8975Z" stroke="white" stroke-width="1.5" stroke-linecap="round" stroke-linejoin="round"/>
<path d="M21.375 13.8975C23.8603 13.8975 25.875 11.8827 25.875 9.39746C25.875 6.91218 23.8603 4.89746 21.375 4.89746C18.8897 4.89746 16.875 6.91218 16.875 9.39746C16.875 11.8827 18.8897 13.8975 21.375 13.8975Z" stroke="white" stroke-width="1.5" stroke-linecap="round" stroke-linejoin="round"/>
</svg>
