<svg width="36" height="37" viewBox="0 0 36 37" fill="none" xmlns="http://www.w3.org/2000/svg">
<path d="M11.1855 14.2394L15.4935 10.1699C15.9762 9.84734 16.5436 9.67508 17.124 9.67493H22.65C23.1553 9.67475 23.652 9.80518 24.0919 10.0535C24.5319 10.3019 24.9002 10.6598 25.161 11.0924L25.686 11.9594C25.9436 12.3842 26.0892 12.8674 26.1091 13.3637C26.1291 13.8601 26.0227 14.3534 25.8 14.7974L25.3245 15.7484C25.0368 16.3242 24.5677 16.7893 23.9895 17.072C23.4113 17.3548 22.7561 17.4394 22.125 17.3129L17.382 16.3649C17.2562 16.3403 17.1267 16.3409 17.001 16.3667C16.8754 16.3924 16.7561 16.4428 16.65 16.5149C16.208 16.8072 15.8542 17.2147 15.6271 17.6936C15.4 18.1724 15.3082 18.7042 15.3615 19.2314C15.3821 19.4396 15.46 19.638 15.5866 19.8046C15.7132 19.9712 15.8835 20.0994 16.0785 20.1749L24.102 23.2604C24.7197 23.4979 25.3995 23.5195 26.031 23.3219L34.5945 20.6474" stroke="white" stroke-width="1.5" stroke-linecap="round" stroke-linejoin="round"/>
<path d="M34.593 9.05392L28.05 5.02342C27.5347 4.70886 26.9352 4.56016 26.3325 4.59742L15.7995 5.21692C15.1419 5.25408 14.5158 5.51138 14.022 5.94742L8.77204 10.6199C8.38772 10.9608 8.10005 11.3969 7.93804 11.8844L6.92554 14.9039" stroke="white" stroke-width="1.5" stroke-linecap="round" stroke-linejoin="round"/>
<path d="M12.336 14.4134C10.442 13.9996 8.46498 14.2093 6.69994 15.0112C4.93491 15.8131 3.47644 17.1641 2.54216 18.8628C1.60789 20.5615 1.24788 22.5167 1.51586 24.4367C1.78384 26.3568 2.66544 28.1387 4.02911 29.5166C5.39279 30.8946 7.16545 31.7947 9.08259 32.0826C10.9997 32.3706 12.9586 32.0309 14.6669 31.1144C16.3752 30.1978 17.7414 28.7535 18.5616 26.9969C19.3817 25.2403 19.612 23.2656 19.218 21.3674" stroke="white" stroke-width="1.5" stroke-linecap="round" stroke-linejoin="round"/>
</svg>
