<svg width="20" height="21" viewBox="0 0 20 21" fill="none" xmlns="http://www.w3.org/2000/svg">
<g clip-path="url(#clip0_2_394)">
<path d="M14.2271 0.397522H10.8565V14.0207C10.8565 15.6439 9.56012 16.9772 7.94685 16.9772C6.33357 16.9772 5.0372 15.6439 5.0372 14.0207C5.0372 12.4265 6.30477 11.1221 7.86044 11.0642V7.64391C4.43222 7.70186 1.66663 10.5135 1.66663 14.0207C1.66663 17.557 4.48984 20.3975 7.97567 20.3975C11.4614 20.3975 14.2847 17.528 14.2847 14.0207V7.03519C15.5522 7.96274 17.1079 8.51347 18.75 8.54247V5.12216C16.2148 5.03521 14.2271 2.94824 14.2271 0.397522Z" fill="#20001C"/>
</g>
<defs>
<clipPath id="clip0_2_394">
<rect width="20" height="20" fill="white" transform="translate(0 0.397522)"/>
</clipPath>
</defs>
</svg>
