<svg width="20" height="21" viewBox="0 0 20 21" fill="none" xmlns="http://www.w3.org/2000/svg">
<path d="M19.8008 6.39755C19.8008 6.39755 19.6055 5.01865 19.0039 4.41318C18.2422 3.6163 17.3906 3.6124 17 3.56552C14.2031 3.3624 10.0039 3.3624 10.0039 3.3624H9.99609C9.99609 3.3624 5.79688 3.3624 3 3.56552C2.60938 3.6124 1.75781 3.6163 0.996094 4.41318C0.394531 5.01865 0.203125 6.39755 0.203125 6.39755C0.203125 6.39755 0 8.01865 0 9.63583V11.1515C0 12.7686 0.199219 14.3897 0.199219 14.3897C0.199219 14.3897 0.394531 15.7686 0.992187 16.3741C1.75391 17.171 2.75391 17.1436 3.19922 17.2296C4.80078 17.3819 10 17.4288 10 17.4288C10 17.4288 14.2031 17.421 17 17.2218C17.3906 17.1749 18.2422 17.171 19.0039 16.3741C19.6055 15.7686 19.8008 14.3897 19.8008 14.3897C19.8008 14.3897 20 12.7726 20 11.1515V9.63583C20 8.01865 19.8008 6.39755 19.8008 6.39755ZM7.93359 12.9913V7.37021L13.3359 10.1905L7.93359 12.9913Z" fill="#20001C"/>
</svg>
