<svg width="180" height="214" viewBox="0 0 180 214" fill="none" xmlns="http://www.w3.org/2000/svg">
<path d="M0 53.2034V160.11L90.0034 213.111L180 160.11V53.2034L90.0034 0.111328L0 53.2034Z" fill="#20001C"/>
<path d="M57.6987 92.1714H43.8634V70.9373C43.8634 68.507 42.9042 67.0697 41.2355 67.0697C40.533 67.0697 38.9589 67.2502 35.6352 69.2292C31.4333 71.7498 30.4741 72.5622 30.4741 80.8391V132.313C30.4741 140.59 31.4401 141.403 35.6352 143.923C38.9657 145.902 40.5397 146.083 41.2355 146.083C42.9042 146.083 43.8634 144.638 43.8634 142.215V119.266H57.6987V143.021C57.6987 155.353 52.3618 162.817 43.5122 162.817C40.6208 162.817 37.1215 161.921 29.6769 157.415C19.8747 151.478 17.0712 147.874 17.0712 132.667V80.5614C17.0712 65.2643 19.8747 61.6605 29.6769 55.8138C37.1215 51.3143 40.6208 50.3213 43.5122 50.3213C52.3551 50.3213 57.6987 57.8831 57.6987 70.118V92.1644V92.1714Z" fill="white"/>
<path d="M125.368 43.7598L139.204 51.5923V145L146.209 141.042C150.85 138.431 151.465 137.348 151.465 129.251V113.322H164.773V129.251C164.773 144.375 161.889 148.333 152.167 154.089L125.375 169.567V43.7598H125.368Z" fill="white"/>
<path d="M98.495 28.6367L112.587 36.5596V176.581L98.495 184.594V113.323H81.2483V184.594L67.3252 176.581V36.5596L81.2483 28.6367V98.1091H98.495V28.6367Z" fill="white"/>
</svg>
