<svg width="20" height="21" viewBox="0 0 20 21" fill="none" xmlns="http://www.w3.org/2000/svg"><g clip-path="url(#clip0_2_381)"><path d="M20 10.398c0-5.523-4.477-10-10-10s-10 4.477-10 10c0 4.99 3.657 9.128 8.438 9.878v-6.988h-2.54v-2.89h2.54V8.194c0-2.506 1.492-3.89 3.777-3.89 1.093 0 2.238.195 2.238.195V6.96h-1.26c-1.243 0-1.63.77-1.63 1.563v1.875h2.773l-.443 2.89h-2.33v6.988c4.78-.75 8.437-4.887 8.437-9.878z" fill="#20001C"/></g><defs><clipPath id="clip0_2_381"><path fill="#fff" transform="translate(0 .398)" d="M0 0h20v20H0z"/></clipPath></defs></svg>