<svg width="64" height="65" viewBox="0 0 64 65" fill="none" xmlns="http://www.w3.org/2000/svg">
<path d="M53.3333 33.4443V18.2443C53.3333 13.7639 53.3333 11.5237 52.4613 9.81241C51.6944 8.30712 50.4705 7.08327 48.9652 6.31628C47.2539 5.44434 45.0137 5.44434 40.5333 5.44434H23.4666C18.9862 5.44434 16.746 5.44434 15.0347 6.31628C13.5294 7.08327 12.3056 8.30712 11.5386 9.81241C10.6666 11.5237 10.6666 13.7639 10.6666 18.2443V45.9777C10.6666 50.4581 10.6666 52.6983 11.5386 54.4096C12.3056 55.9149 13.5294 57.1387 15.0347 57.9057C16.746 58.7777 18.9862 58.7777 23.4666 58.7777H32M37.3333 29.4443H21.3333M26.6666 40.111H21.3333M42.6666 18.7777H21.3333M38.6666 50.7777L44 56.111L56 44.111" stroke="#20001C" stroke-width="3.55556" stroke-linecap="round" stroke-linejoin="round"/>
</svg>
