<svg width="20" height="21" viewBox="0 0 20 21" fill="none" xmlns="http://www.w3.org/2000/svg"><g clip-path="url(#clip0_2_390)" fill="#20001C"><path d="M10 2.198c2.672 0 2.988.012 4.04.059.976.043 1.503.207 1.855.344.464.18.8.398 1.148.746.352.351.566.683.746 1.148.137.352.3.883.344 1.856.047 1.054.058 1.37.058 4.039 0 2.672-.011 2.988-.058 4.039-.043.976-.207 1.504-.344 1.855-.18.465-.398.801-.746 1.149a3.077 3.077 0 01-1.148.746c-.352.137-.883.3-1.856.344-1.055.046-1.371.058-4.039.058-2.672 0-2.988-.012-4.04-.058-.976-.043-1.503-.207-1.855-.344-.464-.18-.8-.399-1.148-.746a3.076 3.076 0 01-.746-1.149c-.137-.351-.3-.883-.344-1.855-.047-1.055-.058-1.371-.058-4.04 0-2.671.011-2.988.058-4.038.043-.977.207-1.504.344-1.856.18-.465.398-.8.746-1.148A3.076 3.076 0 014.105 2.6c.352-.137.883-.301 1.856-.344C7.01 2.21 7.328 2.198 10 2.198zm0-1.8c-2.715 0-3.055.011-4.121.058-1.063.047-1.793.219-2.426.465A4.88 4.88 0 001.68 2.077a4.9 4.9 0 00-1.157 1.77C.277 4.483.105 5.21.06 6.273.012 7.343 0 7.683 0 10.398c0 2.714.012 3.054.059 4.12.046 1.063.218 1.794.464 2.426a4.88 4.88 0 001.157 1.774 4.888 4.888 0 001.77 1.152c.636.246 1.362.418 2.425.465 1.066.047 1.406.059 4.121.059 2.715 0 3.055-.012 4.121-.059 1.063-.047 1.793-.219 2.426-.465a4.888 4.888 0 001.77-1.152 4.887 4.887 0 001.152-1.77c.246-.636.418-1.363.465-2.425.047-1.067.058-1.407.058-4.122 0-2.714-.011-3.054-.058-4.12-.047-1.063-.22-1.794-.465-2.426a4.683 4.683 0 00-1.145-1.778A4.888 4.888 0 0016.55.925C15.915.679 15.188.507 14.126.46 13.055.41 12.715.398 10 .398z"/><path d="M10 5.26a5.138 5.138 0 105.137 5.137c0-2.835-2.301-5.136-5.137-5.136zm0 8.47a3.333 3.333 0 11.001-6.665A3.333 3.333 0 0110 13.73zM16.54 5.058a1.2 1.2 0 11-2.4 0 1.2 1.2 0 012.4 0z"/></g><defs><clipPath id="clip0_2_390"><path fill="#fff" transform="translate(0 .398)" d="M0 0h20v20H0z"/></clipPath></defs></svg>