<svg width="148" height="53" viewBox="0 0 148 53" fill="none" xmlns="http://www.w3.org/2000/svg"><g clip-path="url(#clip0_5_4917)"><path d="M65.249 30.86h-1.831c-1.5 0-2.451.903-2.451 2.38v6.739c0 1.488.95 2.38 2.45 2.38h1.832c1.5 0 2.45-.89 2.45-2.38V33.24c0-1.478-.95-2.38-2.45-2.38zm.447 8.84c0 .433-.217.679-.675.679h-1.363c-.46 0-.688-.246-.688-.68v-6.165c0-.446.229-.692.688-.692h1.362c.46 0 .676.246.676.692v6.165zM73.173 30.86h-1.249c-1.5 0-2.45.903-2.45 2.38v6.739c0 1.488.95 2.38 2.45 2.38h1.249c1.5 0 2.45-.89 2.45-2.38v-1.665h-1.877v1.384c0 .434-.219.68-.664.68h-.928c-.447 0-.675-.246-.675-.68v-6.166c0-.445.228-.691.675-.691h.928c.447 0 .664.245.664.691v1.372h1.878v-1.665c0-1.478-.95-2.38-2.451-2.38v.002zM82.047 30.86l-2.69 5.123v-5.122h-2.004v11.498h2.003v-4.992l2.565 4.992h2.267l-3.068-5.79 3.138-5.708h-2.21zM57.092 35.514h-2.508v-4.653h-2.003v11.498h2.003v-4.863h2.508v4.863h2.003V30.86h-2.003v4.653zM113.65 11.416h-2.749v15.788h2.749V11.416zM130.538 17.605l4.501 9.6h2.197v-15.79h-2.61v9.214l-4.261-9.213h-2.437v15.788h2.61v-9.6zM66.034 20.524h3.448v6.68h2.747V11.416h-2.747v6.41h-3.448v-6.41h-2.747v15.788h2.747v-6.68zM61.025 21.648h-2.577v1.898c0 .599-.31.95-.928.95H56.25c-.618 0-.928-.351-.928-.95v-8.475c0-.597.31-.95.928-.95h1.271c.618 0 .928.353.928.95v1.898h2.577v-2.285c0-2.04-1.305-3.27-3.367-3.27h-1.717c-2.062 0-3.367 1.233-3.367 3.27v9.247c0 2.04 1.307 3.27 3.367 3.27h1.717c2.06 0 3.367-1.23 3.367-3.27v-2.287.004zM77.616 11.38l-3.814 15.823h2.782l.79-3.585h3.572l.79 3.585h2.817L80.807 11.38h-3.195.004zm.331 9.635l1.214-5.485 1.214 5.486h-2.428zM106.023 30.86h-2.004V42.36h5.279v-1.98h-3.275v-9.518zM144.633 11.416h-1.717c-2.062 0-3.366 1.232-3.366 3.27v2.602c0 1.264.619 2.227 1.889 2.566l2.85.773c.722.199.927.458.927 1.23v1.69c0 .598-.309.949-.927.949h-1.338c-.619 0-.927-.351-.927-.95v-1.652h-2.577v2.039c0 2.039 1.305 3.27 3.366 3.27h1.718c2.061 0 3.366-1.231 3.366-3.27V20.98c0-1.266-.619-2.228-1.889-2.567l-2.852-.774c-.722-.2-.927-.458-.927-1.23V15.07c0-.597.308-.95.927-.95h1.34c.619 0 .927.353.927.95v1.478H148v-1.863c0-2.04-1.305-3.27-3.367-3.27zM129.885 30.86h-1.477c-1.5 0-2.451.903-2.451 2.38v6.739c0 1.488.951 2.38 2.451 2.38h1.477c1.501 0 2.451-.89 2.451-2.38v-3.575h-2.931v1.84h1.053v1.454c0 .434-.218.68-.664.68h-1.156c-.447 0-.675-.246-.675-.68v-6.166c0-.445.228-.691.675-.691h1.156c.447 0 .664.245.664.691v1.255h1.878v-1.548c0-1.478-.95-2.38-2.451-2.38v.002zM85.288 42.359H90.6v-1.98h-3.308v-2.966h2.954v-1.935h-2.954v-2.636H90.6v-1.981h-5.312v11.498zM122.042 11.416h-2.507c-2.061 0-3.366 1.232-3.366 3.27v9.247c0 2.039 1.305 3.27 3.366 3.27h2.507c2.061 0 3.367-1.231 3.367-3.27v-9.247c0-2.04-1.306-3.27-3.367-3.27zm.618 12.132c0 .598-.308.95-.927.95h-1.888c-.619 0-.927-.352-.927-.95v-8.476c0-.596.309-.949.927-.949h1.888c.619 0 .927.353.927.95v8.475zM142.595 42.359h5.312v-1.98h-3.308v-2.966h2.954v-1.945h-2.954v-2.626h3.308v-1.981h-5.312v11.498zM94.722 18.695v8.51H97.3V11.38h-1.992l-3.574 7.947-3.607-7.947h-1.992v15.824h2.577v-8.51l2.37 5.17h1.271l2.37-5.17zM119.936 30.837l-2.77 11.522h2.027l.573-2.578h2.609l.573 2.578h2.039l-2.713-11.522H119.936zm.252 7.021l.882-3.997.881 3.997h-1.763zM95.272 35.738l-1.477-4.877h-2.176l2.646 7.408v4.09h2.004v-4.09l2.668-7.408h-2.2l-1.465 4.877zM138.725 39.7c0 .433-.219.679-.676.679h-1.26c-.459 0-.687-.246-.687-.68v-8.836h-2.004v9.118c0 1.488.951 2.38 2.451 2.38h1.729c1.5 0 2.449-.89 2.449-2.38v-9.119h-2.004V39.7h.002zM110.673 42.359h5.312v-1.98h-3.309v-2.966h2.955v-1.935h-2.955v-2.636h3.309v-1.981h-5.312v11.498zM108.634 19.117v-4.431c0-2.04-1.305-3.27-3.367-3.27h-5.29v15.788h2.747v-4.817h2.542c2.06 0 3.366-1.23 3.366-3.27h.002zm-5.909.563v-5.557h2.234c.62 0 .928.353.928.95v3.657c0 .599-.308.95-.928.95h-2.234zM0 13.358v26.099l22.063 12.939 22.06-12.94V13.359L22.064.398 0 13.358z" fill="#20001C"/><path d="M14.144 22.872h-3.392v-5.184c0-.593-.235-.944-.644-.944-.172 0-.558.044-1.373.527-1.03.615-1.265.814-1.265 2.834v12.566c0 2.02.237 2.22 1.265 2.834.817.484 1.203.528 1.373.528.41 0 .644-.353.644-.944v-5.603h3.392v5.8c0 3.01-1.309 4.832-3.478 4.832-.709 0-1.566-.219-3.391-1.319-2.403-1.45-3.09-2.329-3.09-6.041v-12.72c0-3.735.687-4.615 3.09-6.042 1.825-1.098 2.682-1.34 3.391-1.34 2.168 0 3.478 1.845 3.478 4.832V22.872zM30.732 11.053l3.391 1.912v22.803l1.717-.966c1.138-.637 1.289-.902 1.289-2.878v-3.889h3.262v3.889c0 3.692-.707 4.658-3.09 6.063l-6.568 3.779V11.053h-.001zM24.144 7.361L27.6 9.295v34.183l-3.455 1.956V28.035h-4.227v17.399l-3.414-1.956V9.295l3.413-1.934v16.96h4.228V7.361z" fill="#fff"/></g><defs><clipPath id="clip0_5_4917"><path fill="#fff" transform="translate(0 .398)" d="M0 0h148v52H0z"/></clipPath></defs></svg>