<svg width="36" height="37" viewBox="0 0 36 37" fill="none" xmlns="http://www.w3.org/2000/svg"><path d="M30.435 21.907l-7.74 1.48M21.624 13.114l-5.202 1.72a1.727 1.727 0 01-2.107-.917 1.746 1.746 0 01.793-2.295l5.038-2.533a3.515 3.515 0 012.792-.162l7.46 2.728" stroke="#fff" stroke-width="1.5" stroke-linecap="round" stroke-linejoin="round"/><path d="M5.527 21.92h3.668l5.268 5.903A2.013 2.013 0 0018 26.51v-.922l.262.105a2.485 2.485 0 003.407-2.306h.733a2.203 2.203 0 001.761-3.522l-4.708-6.033M15.874 11.235l-.537-.442a3.15 3.15 0 00-3.035-.387l-6.677 2.67" stroke="#fff" stroke-width="1.5" stroke-linecap="round" stroke-linejoin="round"/><path d="M1.125 10.523h3a1.441 1.441 0 011.5 1.373v9.626a1.443 1.443 0 01-1.5 1.376h-3M34.875 22.898h-3a1.443 1.443 0 01-1.5-1.376v-9.625a1.442 1.442 0 011.5-1.374h3M18 25.587l-1.467-1.467M21.669 23.386l-2.202-2.202" stroke="#fff" stroke-width="1.5" stroke-linecap="round" stroke-linejoin="round"/></svg>