<svg width="36" height="37" viewBox="0 0 36 37" fill="none" xmlns="http://www.w3.org/2000/svg"><g clip-path="url(#clip0_2_4185)" stroke="#fff" stroke-width="1.5" stroke-linecap="round" stroke-linejoin="round"><path d="M6.75 12.773a3.375 3.375 0 100-6.75 3.375 3.375 0 000 6.75zM6.75 15.023a5.625 5.625 0 00-5.625 5.625v3.375h2.25l1.125 9H9M29.25 12.773a3.375 3.375 0 100-6.75 3.375 3.375 0 000 6.75zM29.25 15.023a5.625 5.625 0 015.625 5.625v3.375h-2.25l-1.125 9H27M18 10.523a4.5 4.5 0 100-9 4.5 4.5 0 000 9zM25.875 20.648a7.875 7.875 0 10-15.75 0v3.375H13.5l1.125 11.25h6.75l1.125-11.25h3.375v-3.375z"/></g><defs><clipPath id="clip0_2_4185"><path fill="#fff" transform="translate(0 .397)" d="M0 0h36v36H0z"/></clipPath></defs></svg>