<svg width="65" height="65" viewBox="0 0 65 65" fill="none" xmlns="http://www.w3.org/2000/svg">
<path d="M48.5 35.2777L45.0343 17.9492C44.8407 16.9812 44.7439 16.4972 44.5086 16.1031C44.3005 15.7546 44.0156 15.4583 43.6756 15.2366C43.2911 14.9858 42.8113 14.87 41.8517 14.6384L5.83337 5.94434M5.83337 5.94434L14.5274 41.9626C14.7591 42.9222 14.8749 43.402 15.1256 43.7866C15.3473 44.1265 15.6437 44.4114 15.9921 44.6195C16.3862 44.8549 16.8702 44.9517 17.8382 45.1453L35.1667 48.611M5.83337 5.94434L26.0627 26.1737M43.517 56.2607L56.1497 43.628C57.2058 42.5719 57.7338 42.0439 57.9316 41.435C58.1056 40.8995 58.1056 40.3225 57.9316 39.787C57.7338 39.1781 57.2058 38.6501 56.1497 37.594L54.1837 35.628C53.1276 34.5719 52.5996 34.0439 51.9908 33.8461C51.4552 33.6721 50.8782 33.6721 50.3427 33.8461C49.7338 34.0439 49.2058 34.5719 48.1497 35.628L35.517 48.2607C34.461 49.3167 33.933 49.8447 33.7351 50.4536C33.5611 50.9892 33.5611 51.5661 33.7351 52.1017C33.933 52.7106 34.461 53.2386 35.517 54.2947L37.4831 56.2607C38.5391 57.3167 39.0671 57.8447 39.676 58.0426C40.2116 58.2166 40.7885 58.2166 41.3241 58.0426C41.933 57.8447 42.461 57.3167 43.517 56.2607ZM35.1667 29.9443C35.1667 32.8899 32.7789 35.2777 29.8334 35.2777C26.8879 35.2777 24.5 32.8899 24.5 29.9443C24.5 26.9988 26.8879 24.611 29.8334 24.611C32.7789 24.611 35.1667 26.9988 35.1667 29.9443Z" stroke="#20001C" stroke-width="3.55556" stroke-linecap="round" stroke-linejoin="round"/>
</svg>
