<svg width="36" height="37" viewBox="0 0 36 37" fill="none" xmlns="http://www.w3.org/2000/svg"><g clip-path="url(#clip0_2_3551)" stroke="#fff" stroke-width="1.5" stroke-linecap="round" stroke-linejoin="round"><path d="M17.25 11.648a5.063 5.063 0 100-10.126 5.063 5.063 0 000 10.126zM23.33 16.148a9.042 9.042 0 00-12.16 0"/><path d="M22.313 6.751c-.915.264-1.861.397-2.813.396a10.085 10.085 0 01-6.852-2.671M27.75 29.648a5.063 5.063 0 100-10.126 5.063 5.063 0 000 10.126zM34.875 35.273a9.039 9.039 0 00-14.25 0M32.813 24.752a10.14 10.14 0 01-9.665-2.276M8.25 29.648a5.063 5.063 0 100-10.126 5.063 5.063 0 000 10.126zM15.373 35.273a9.04 9.04 0 00-14.25 0M13.313 24.752a10.14 10.14 0 01-9.665-2.276"/></g><defs><clipPath id="clip0_2_3551"><path fill="#fff" transform="translate(0 .397)" d="M0 0h36v36H0z"/></clipPath></defs></svg>