<svg width="64" height="65" viewBox="0 0 64 65" fill="none" xmlns="http://www.w3.org/2000/svg">
<path d="M40 5.44434V9.17767C40 10.6711 40 11.4179 39.7094 11.9883C39.4537 12.4901 39.0458 12.898 38.544 13.1537C37.9736 13.4443 37.2268 13.4443 35.7334 13.4443H28.2667C26.7732 13.4443 26.0265 13.4443 25.4561 13.1537C24.9543 12.898 24.5464 12.4901 24.2907 11.9883C24 11.4179 24 10.6711 24 9.17767V5.44434M21.8667 58.7777H42.1334C45.1203 58.7777 46.6138 58.7777 47.7547 58.1964C48.7582 57.685 49.5741 56.8691 50.0854 55.8656C50.6667 54.7248 50.6667 53.2313 50.6667 50.2443V13.9777C50.6667 10.9907 50.6667 9.49725 50.0854 8.35639C49.5741 7.35286 48.7582 6.53696 47.7547 6.02563C46.6138 5.44434 45.1203 5.44434 42.1334 5.44434H21.8667C18.8798 5.44434 17.3863 5.44434 16.2454 6.02563C15.2419 6.53696 14.426 7.35286 13.9147 8.35639C13.3334 9.49725 13.3334 10.9907 13.3334 13.9777V50.2443C13.3334 53.2313 13.3334 54.7248 13.9147 55.8656C14.426 56.8691 15.2419 57.685 16.2454 58.1964C17.3863 58.7777 18.8798 58.7777 21.8667 58.7777Z" stroke="#20001C" stroke-width="3.55556" stroke-linecap="round" stroke-linejoin="round"/>
</svg>
