<svg width="64" height="65" viewBox="0 0 64 65" fill="none" xmlns="http://www.w3.org/2000/svg">
<path d="M32 5.44434C35.5019 5.44434 38.9695 6.13409 42.2049 7.47422C45.4402 8.81434 48.3799 10.7786 50.8562 13.2548C53.3324 15.7311 55.2966 18.6708 56.6368 21.9061C57.9769 25.1415 58.6666 28.6091 58.6666 32.111M32 5.44434V32.111M32 5.44434C17.2724 5.44434 5.33331 17.3834 5.33331 32.111C5.33331 46.8386 17.2724 58.7777 32 58.7777C46.7276 58.7777 58.6666 46.8386 58.6666 32.111M32 5.44434C46.7276 5.44434 58.6666 17.3834 58.6666 32.111M58.6666 32.111L32 32.111M58.6666 32.111C58.6666 36.3193 57.6707 40.4678 55.7601 44.2174C53.8496 47.967 51.0788 51.2112 47.6743 53.6848L32 32.111" stroke="#20001C" stroke-width="3.55556" stroke-linecap="round" stroke-linejoin="round"/>
</svg>
