<svg width="36" height="37" viewBox="0 0 36 37" fill="none" xmlns="http://www.w3.org/2000/svg"><g clip-path="url(#clip0_2_3573)" stroke="#fff" stroke-width="1.5" stroke-linecap="round" stroke-linejoin="round"><path d="M18 35.273c9.32 0 16.875-7.556 16.875-16.876S27.32 1.523 18 1.523 1.125 9.078 1.125 18.398 8.68 35.273 18 35.273z"/><path d="M13.934 34.779c-2.284-3.348-3.809-9.432-3.809-16.382 0-6.949 1.525-13.033 3.809-16.381M1.125 18.398h33.75M3.723 27.398h28.554M3.723 9.397h28.554M22.067 2.016c2.282 3.348 3.808 9.432 3.808 16.382 0 6.949-1.526 13.033-3.808 16.381"/></g><defs><clipPath id="clip0_2_3573"><path fill="#fff" transform="translate(0 .397)" d="M0 0h36v36H0z"/></clipPath></defs></svg>