<svg width="36" height="37" viewBox="0 0 36 37" fill="none" xmlns="http://www.w3.org/2000/svg"><g clip-path="url(#clip0_2_3536)" stroke="#fff" stroke-width="1.5" stroke-linecap="round" stroke-linejoin="round"><path d="M11.25 21.773h-4.5v9h4.5v-9zM20.25 21.773h-4.5v9h4.5v-9zM29.25 21.773h-4.5v9h4.5v-9zM31.5 20.648a1.125 1.125 0 01-1.125 1.125H5.625A1.125 1.125 0 014.5 20.648a1.56 1.56 0 011.068-1.481l12.077-4.026c.23-.076.48-.076.71 0l12.077 4.026a1.56 1.56 0 011.068 1.48z"/><path d="M22.5 12.773H27v5.25M9 18.023v-5.25h4.5M9 12.773a9 9 0 1118 0M18 1.522v2.25M2.25 35.273h31.5M4.5 30.773h27"/></g><defs><clipPath id="clip0_2_3536"><path fill="#fff" transform="translate(0 .397)" d="M0 0h36v36H0z"/></clipPath></defs></svg>