<svg width="64" height="65" viewBox="0 0 64 65" fill="none" xmlns="http://www.w3.org/2000/svg">
<path d="M48 18.7777V13.9777C48 10.9907 48 9.49725 47.4187 8.35639C46.9074 7.35286 46.0915 6.53696 45.088 6.02563C43.9471 5.44434 42.4537 5.44434 39.4667 5.44434H24.5334C21.5464 5.44434 20.053 5.44434 18.9121 6.02563C17.9086 6.53696 17.0927 7.35286 16.5813 8.35639C16 9.49725 16 10.9907 16 13.9777V18.7777M16 48.111C13.5201 48.111 12.2802 48.111 11.2628 47.8384C8.50209 47.0987 6.3457 44.9423 5.60597 42.1816C5.33337 41.1642 5.33337 39.9243 5.33337 37.4443V31.5777C5.33337 27.0972 5.33337 24.857 6.20532 23.1457C6.97231 21.6404 8.19615 20.4166 9.70145 19.6496C11.4127 18.7777 13.653 18.7777 18.1334 18.7777H45.8667C50.3471 18.7777 52.5873 18.7777 54.2986 19.6496C55.8039 20.4166 57.0278 21.6404 57.7948 23.1457C58.6667 24.857 58.6667 27.0972 58.6667 31.5777V37.4443C58.6667 39.9243 58.6667 41.1642 58.3941 42.1816C57.6544 44.9423 55.498 47.0987 52.7373 47.8384C51.7199 48.111 50.48 48.111 48 48.111M40 28.111H48M24.5334 58.7777H39.4667C42.4537 58.7777 43.9471 58.7777 45.088 58.1964C46.0915 57.685 46.9074 56.8691 47.4187 55.8656C48 54.7248 48 53.2313 48 50.2443V45.9777C48 42.9907 48 41.4972 47.4187 40.3564C46.9074 39.3529 46.0915 38.537 45.088 38.0256C43.9471 37.4443 42.4537 37.4443 39.4667 37.4443H24.5334C21.5464 37.4443 20.053 37.4443 18.9121 38.0256C17.9086 38.537 17.0927 39.3529 16.5813 40.3564C16 41.4972 16 42.9907 16 45.9777V50.2443C16 53.2313 16 54.7248 16.5813 55.8656C17.0927 56.8691 17.9086 57.685 18.9121 58.1964C20.053 58.7777 21.5464 58.7777 24.5334 58.7777Z" stroke="#20001C" stroke-width="3.55556" stroke-linecap="round" stroke-linejoin="round"/>
</svg>
