<svg width="36" height="37" viewBox="0 0 36 37" fill="none" xmlns="http://www.w3.org/2000/svg"><path d="M23.625 18.398H3.375a2.25 2.25 0 00-2.25 2.25v11.25a2.25 2.25 0 002.25 2.25h20.25a2.25 2.25 0 002.25-2.25v-11.25a2.25 2.25 0 00-2.25-2.25zM25.875 30.145l7.48 2.805a1.126 1.126 0 001.52-1.053V21.645a1.122 1.122 0 00-1.52-1.05l-7.48 2.804v6.747zM6.75 22.898h12.375M6.75 13.898a5.625 5.625 0 100-11.25 5.625 5.625 0 000 11.25zM21.375 13.898a4.5 4.5 0 100-9 4.5 4.5 0 000 9z" stroke="#fff" stroke-width="1.5" stroke-linecap="round" stroke-linejoin="round"/></svg>