<svg width="36" height="37" viewBox="0 0 36 37" fill="none" xmlns="http://www.w3.org/2000/svg"><path d="M11.185 14.24l4.308-4.07a2.936 2.936 0 011.631-.495h5.526a2.931 2.931 0 012.511 1.417l.525.867a2.935 2.935 0 01.114 2.838l-.476.951a2.932 2.932 0 01-3.199 1.565l-4.743-.948a.97.97 0 00-.732.15 2.906 2.906 0 00-1.288 2.716 1.131 1.131 0 00.716.944l8.024 3.085c.618.238 1.297.26 1.929.062l8.563-2.675" stroke="#fff" stroke-width="1.5" stroke-linecap="round" stroke-linejoin="round"/><path d="M34.593 9.054l-6.543-4.03a2.947 2.947 0 00-1.718-.427l-10.533.62a2.936 2.936 0 00-1.777.73l-5.25 4.673c-.384.34-.672.777-.834 1.264l-1.012 3.02M12.336 14.413a8.988 8.988 0 106.882 6.954" stroke="#fff" stroke-width="1.5" stroke-linecap="round" stroke-linejoin="round"/></svg>