<svg width="20" height="21" viewBox="0 0 20 21" fill="none" xmlns="http://www.w3.org/2000/svg"><g clip-path="url(#clip0_2_394)"><path d="M14.227.398h-3.37V14.02c0 1.623-1.297 2.956-2.91 2.956-1.613 0-2.91-1.333-2.91-2.956 0-1.595 1.268-2.899 2.823-2.957v-3.42c-3.428.058-6.193 2.87-6.193 6.377 0 3.536 2.823 6.377 6.309 6.377 3.485 0 6.309-2.87 6.309-6.377V7.035a7.805 7.805 0 004.465 1.507v-3.42c-2.535-.087-4.523-2.174-4.523-4.724z" fill="#20001C"/></g><defs><clipPath id="clip0_2_394"><path fill="#fff" transform="translate(0 .398)" d="M0 0h20v20H0z"/></clipPath></defs></svg>