<svg width="20" height="21" viewBox="0 0 20 21" fill="none" xmlns="http://www.w3.org/2000/svg"><path d="M19.8 6.398s-.195-1.38-.796-1.985c-.762-.797-1.613-.8-2.004-.847-2.797-.204-6.996-.204-6.996-.204h-.008s-4.2 0-6.996.204c-.39.046-1.242.05-2.004.847C.395 5.02.203 6.398.203 6.398S0 8.018 0 9.636v1.516c0 1.617.2 3.238.2 3.238s.195 1.379.792 1.984c.762.797 1.762.77 2.207.856 1.602.152 6.801.199 6.801.199s4.203-.008 7-.207c.39-.047 1.242-.051 2.004-.848.601-.605.797-1.984.797-1.984S20 12.773 20 11.15V9.636c0-1.617-.2-3.238-.2-3.238zM7.935 12.99v-5.62l5.402 2.82-5.402 2.8z" fill="#20001C"/></svg>